# xmcd CD database file
# Copyright (C) 1993-1998 Ti Kan
#
# Track frame offsets:
#	182
#	16547
#	33015
#	45497
#	57035
#	72415
#	85737
#	98217
#	112700
#	126230
#	141432
#	156285
#	169257
#	184435
#	200232
#	215010
#	224217
#	239392
#	250997
#	264575
#
# Disc length: 3754 seconds
#
# Revision: 1
# Processed by: cddbd v1.4b41PL1 Copyright (c) Steve Scherf et al.
# Submitted via: CDValet v3.31 - Copyright (c) 1997 Greg Leichner
#
DISCID=2a0ea814
DTITLE=Glenn Miller - Moonlight Serenade
DYEAR=1900
DGENRE=
TTITLE0=In The Mood
TTITLE1=Hallelujah
TTITLE2=Back To BAck
TTITLE3=The Jumpin' Jive
TTITLE4=Chattanooga Choo Choo
TTITLE5=Happy In Love
TTITLE6=Serenade In Blue
TTITLE7=Don't Sit Under The Apple Tree
TTITLE8=Moonlight Cocktail
TTITLE9=Moonlight Serenade
TTITLE10=Pennsylvania 6-5000
TTITLE11=Johnson Rag
TTITLE12=In A Sentimental Mood
TTITLE13=St. Louis Blues
TTITLE14=My Prayer
TTITLE15=Anchors Aweigh
TTITLE16=I've Got A Girl In Kalamazoo
TTITLE17=The Woodpecker Song
TTITLE18=I Know Why
TTITLE19=Melancholy Baby/Stomping At The Savoy/Blue Moon
EXTD=
EXTT0=
EXTT1=
EXTT2=
EXTT3=
EXTT4=
EXTT5=
EXTT6=
EXTT7=
EXTT8=
EXTT9=
EXTT10=
EXTT11=
EXTT12=
EXTT13=
EXTT14=
EXTT15=
EXTT16=
EXTT17=
EXTT18=
EXTT19=
PLAYORDER=
